inDegrees=no
num_controls=7
num_derivatives=13
num_iterations=135
num_multipliers=7
num_parameters=0
num_slacks=7
num_states=26
objective=5.341328
objective_accelerations=0.367020
objective_balance=0.020920
objective_effort=0.422114
objective_height=4.481543
objective_ligament=0.049731
solver_duration=1427.487693
status=Solve_Succeeded
success=true
DataType=double
version=3
OpenSimVersion=4.4-2022-07-23-0e9fedc
endheader
time	/jointset/ground_pelvis/pelvis_tilt/value	/jointset/ground_pelvis/pelvis_tx/value	/jointset/ground_pelvis/pelvis_ty/value	/jointset/hip_l/hip_flexion_l/value	/jointset/hip_l/hip_adduction_l/value	/jointset/hip_l/hip_rotation_l/value	/jointset/back/lumbar_extension/value	/jointset/patellofemoral_l/patellar_flexion_l/value	/jointset/knee_l/knee_flexion_l/value	/jointset/knee_l/knee_adduction_l/value	/jointset/knee_l/knee_rotation_l/value	/jointset/ankle_l/ankle_angle_l/value	/jointset/subtalar_l/subtalar_angle_l/value	/jointset/ground_pelvis/pelvis_tilt/speed	/jointset/ground_pelvis/pelvis_tx/speed	/jointset/ground_pelvis/pelvis_ty/speed	/jointset/hip_l/hip_flexion_l/speed	/jointset/hip_l/hip_adduction_l/speed	/jointset/hip_l/hip_rotation_l/speed	/jointset/back/lumbar_extension/speed	/jointset/patellofemoral_l/patellar_flexion_l/speed	/jointset/knee_l/knee_flexion_l/speed	/jointset/knee_l/knee_adduction_l/speed	/jointset/knee_l/knee_rotation_l/speed	/jointset/ankle_l/ankle_angle_l/speed	/jointset/subtalar_l/subtalar_angle_l/speed	/forceset/tau_hip_flexion_l	/forceset/tau_hip_adduction_l	/forceset/tau_hip_rotation_l	/forceset/tau_knee_flexion_l	/forceset/tau_ankle_angle_l	/forceset/tau_subtalar_angle_l	/forceset/tau_lumbar_extension	lambda_cid13_p0	lambda_cid13_p1	lambda_cid13_p2	lambda_cid13_p3	lambda_cid13_p4	lambda_cid13_p5	lambda_cid14_p0	/jointset/ground_pelvis/pelvis_tilt/accel	/jointset/ground_pelvis/pelvis_tx/accel	/jointset/ground_pelvis/pelvis_ty/accel	/jointset/hip_l/hip_flexion_l/accel	/jointset/hip_l/hip_adduction_l/accel	/jointset/hip_l/hip_rotation_l/accel	/jointset/back/lumbar_extension/accel	/jointset/patellofemoral_l/patellar_flexion_l/accel	/jointset/knee_l/knee_flexion_l/accel	/jointset/knee_l/knee_adduction_l/accel	/jointset/knee_l/knee_rotation_l/accel	/jointset/ankle_l/ankle_angle_l/accel	/jointset/subtalar_l/subtalar_angle_l/accel	gamma_cid13_p0	gamma_cid13_p1	gamma_cid13_p2	gamma_cid13_p3	gamma_cid13_p4	gamma_cid13_p5	gamma_cid14_p0
0.5	-0.07960101243563689	-0.04084706628546558	0.8363560260233779	0.81084538328724	-0.3290123028514773	-0.1210292355729227	-0.7728292026596375	0.7704796287802056	0.7704796287802069	-0.1255612309568785	-0.1741522758106546	0.09106737570628079	-0.00585124219043704	-0.09785094866982022	-0.1765293947178191	-0.2949670463661117	1.276857186967306	-0.04430238057328363	0.4597960809797009	-0.8390898116136589	1.381653490096141	1.381653490096118	0.1086435788007332	0.0006222809100867096	0.2937901873194647	0.04586103897803539	-0.2527824899474288	0.01894988733484271	-0.001907750111833828	-0.2212880266449415	0.1028572417693314	0.04827706084473975	0.3136204168523269	-11.57545493707202	-20.81044763247019	5.000006228525603	-7.960042814554937	-703.8884611842566	-79.97715999039285	-15.5418808189721	0.1935877717352273	0.5637422439382448	-0.09951766343126721	-1.280961256910759	0.2525243593661134	-0.389501717577088	1.58954089318741	-1.073448319337665	-1.07344831933766	-0.1814702293282318	0.0118053681589822	-0.02060095595194237	0.2776107043352615	-4.660855810252499e-08	-3.640511380028793e-07	1.149775731500504e-07	-3.997419244734033e-08	-5.975870481615284e-08	-8.701723299986338e-08	-6.259980535249121e-08
0.51	-0.08056978915525367	-0.04258412298285544	0.8334019797819724	0.8235482159470497	-0.3294430590101619	-0.1164517017595329	-0.7811397858916302	0.7842404448561147	0.7842404448560318	-0.1244843587471303	-0.1741461073712647	0.09400349813098013	-0.005379356760043062	-0.09589030478637488	-0.1708769941143473	-0.2957790578432882	1.263538845530949	-0.04185515195662104	0.4556520767675794	-0.8229514698889113	1.370312005109286	1.370312005109281	0.1067202075143863	0.0006078866515417504	0.2933763035853922	0.04849313845037571	-0.258028627108886	0.01926936920014553	-0.001996989580522646	-0.2239655060951383	0.1025304279273499	0.04861058724868497	0.3189227345446138	-11.85965219187114	-20.87394977576097	4.974049632666492	-7.851267065919145	-707.0837446627069	-79.94489626447037	-15.04711129877903	0.1994123775106754	0.5667238160339683	-0.06258252184727525	-1.382849635218743	0.2399023170956159	-0.4356954719085893	1.637285546277321	-1.194144343973404	-1.194144343970765	-0.199424343920057	-0.008561684489949196	-0.06049264642465454	0.2526147352184498	-4.491803588356574e-08	-3.298036960417877e-07	1.227454792387257e-07	-3.6917366818052e-08	-5.361552836185976e-08	-7.958113809524528e-08	-5.965149360395527e-08
0.52	-0.08151853749983828	-0.0442645087047137	0.8304417054993976	0.8361127493828453	-0.3298495268418014	-0.1119173771281635	-0.7892867247595428	0.7978819169309472	0.7978819169309279	-0.1234270510031696	-0.1741401828469833	0.09693373960546972	-0.004881829301618102	-0.09384527366846072	-0.1651951996114989	-0.2962126545999785	1.249197342165798	-0.03944471516869771	0.4511542446002582	-0.8063609387978271	1.357784689897863	1.357784689897876	0.1047306856027005	0.0005734979278530618	0.292613997279732	0.05098944458410255	-0.2632747642705719	0.01958885106512682	-0.002086229047135688	-0.2266429855455283	0.102203614085259	0.04894411365222989	0.3242250522368075	-12.1470467661235	-20.93763247098601	4.948967631745261	-7.767566586565424	-710.3516125822114	-79.93471743305466	-14.55000574726898	0.2104652186284458	0.5696210238141599	-0.02383471933389885	-1.485593642669698	0.2451659936183565	-0.4602673086170334	1.679978766454601	-1.310614364251526	-1.310614364251515	-0.1947003543960919	0.007806475130149475	-0.09028547026876248	0.2504520366127646	-4.321543248826601e-08	-2.942885755362182e-07	1.313010293993069e-07	-3.320401703647649e-08	-4.836259069037249e-08	-7.197946688528246e-08	-5.652298266321474e-08
0.53	-0.08244643001316022	-0.04588793501960885	0.8274790068835786	0.8485288074591926	-0.3302320724633201	-0.1074296554998618	-0.7972654762168863	0.8113922945458723	0.8113922945459026	-0.1223899625421168	-0.174134591662223	0.09985471600030847	-0.004359987521199524	-0.09171841386582712	-0.1594855174866301	-0.2962612398725217	1.233842670686341	-0.03707290554200584	0.4463316972093452	-0.7893147961570965	1.344099963674857	1.344099963674884	0.1026783395572449	0.000539910624269214	0.2915310993224816	0.05335598215309329	-0.2684228845758506	0.01994775284739229	-0.002189319066688429	-0.2293916668632273	0.1019925940318694	0.04912029316206937	0.3294604906415554	-12.4032462031234	-20.93465343631895	4.908930976186453	-7.694565167748562	-713.6350444065349	-79.80511485276465	-14.05107465945458	0.2160142747699383	0.5723174397231547	0.01449475210597167	-1.586148819730667	0.2319271430011883	-0.5020554267407658	1.728115489689285	-1.426021188013246	-1.426021188011275	-0.211844499887652	-0.009635409098252801	-0.1248281394049416	0.2263432097508087	-4.108715471070745e-08	-2.599190322305942e-07	1.375310981732509e-07	-2.97695069792803e-08	-4.29319215617795e-08	-6.409791945762437e-08	-5.320197089913013e-08
0.54	-0.08335261034568346	-0.04745412938667552	0.8245177954516979	0.8607861698369421	-0.3305911522493665	-0.1029919207400172	-0.8050715295524569	0.8247601010112592	0.8247601010112861	-0.1213736660956716	-0.1741294751656266	0.1027633561793848	-0.003815162646548365	-0.0895028375156838	-0.1537488100458018	-0.295915217812287	1.217458202440981	-0.03475154808306231	0.4411568709219534	-0.7718213144441033	1.329270459984326	1.329270459984367	0.1005722827011045	0.0004785602808447051	0.2901467541271674	0.05558606343042326	-0.2735710048811508	0.02030665462959903	-0.002292409086621092	-0.2321403481809082	0.1017815739784641	0.04929647267182938	0.3346959290463032	-12.66353789846051	-20.93151149907334	4.8695008520491	-7.643621849011993	-717.0025912639314	-79.69814170096915	-13.55095245252393	0.2282085281298531	0.5750260870066075	0.05508674722179792	-1.691552995850504	0.2350755600686059	-0.5307230879128763	1.7694465809071	-1.539569857756655	-1.539569857756617	-0.2054425165331321	0.002253867161952728	-0.1505749178808203	0.2231607782807953	-3.84879180421391e-08	-2.268169360398036e-07	1.411882939236811e-07	-2.664350044692929e-08	-3.730461337426106e-08	-5.590672174655874e-08	-4.966797950070738e-08
